<?xml version="1.0" encoding="UTF-8" standalone="no"?>
<svg
   xmlns:dc="http://purl.org/dc/elements/1.1/"
   xmlns:cc="http://creativecommons.org/ns#"
   xmlns:rdf="http://www.w3.org/1999/02/22-rdf-syntax-ns#"
   xmlns:svg="http://www.w3.org/2000/svg"
   xmlns="http://www.w3.org/2000/svg"
   xmlns:xlink="http://www.w3.org/1999/xlink"
   width="800"
   height="1000"
   viewBox="0 0 211.66666 264.5834"
   version="1.1"
   id="svg8">
  <defs
     id="defs2">
    <rect
       id="rect1895"
       height="13.77487"
       width="79.455917"
       y="127.33112"
       x="58.034386" />
    <linearGradient
       id="linearGradient1889">
      <stop
         id="stop1885"
         offset="0"
         style="stop-color:#000000;stop-opacity:1;" />
      <stop
         id="stop1887"
         offset="1"
         style="stop-color:#000000;stop-opacity:0;" />
    </linearGradient>
    <linearGradient
       id="linearGradient1017">
      <stop
         id="stop1009"
         offset="0"
         style="stop-color:#fefefe;stop-opacity:1" />
      <stop
         style="stop-color:#f6f6f6;stop-opacity:1"
         offset="0.63535148"
         id="stop1011" />
      <stop
         id="stop1013"
         offset="0.90764499"
         style="stop-color:#c0c0c0;stop-opacity:1" />
      <stop
         id="stop1015"
         offset="1"
         style="stop-color:#a5a5a5;stop-opacity:1" />
    </linearGradient>
    <linearGradient
       id="linearGradient999">
      <stop
         id="stop995"
         offset="0"
         style="stop-color:#ffffff;stop-opacity:1;" />
      <stop
         id="stop997"
         offset="1"
         style="stop-color:#ffffff;stop-opacity:0;" />
    </linearGradient>
    <linearGradient
       id="linearGradient983">
      <stop
         id="stop979"
         offset="0"
         style="stop-color:#0055d4;stop-opacity:1;" />
      <stop
         id="stop981"
         offset="1"
         style="stop-color:#0055d4;stop-opacity:0;" />
    </linearGradient>
    <linearGradient
       id="linearGradient973">
      <stop
         id="stop969"
         offset="0"
         style="stop-color:#00ff66;stop-opacity:1;" />
      <stop
         id="stop971"
         offset="1"
         style="stop-color:#00ff66;stop-opacity:0;" />
    </linearGradient>
    <linearGradient
       id="linearGradient953">
      <stop
         id="stop949"
         offset="0"
         style="stop-color:#a6ecff;stop-opacity:1" />
      <stop
         style="stop-color:#4cdaff;stop-opacity:1;"
         offset="0.53977871"
         id="stop957" />
      <stop
         id="stop951"
         offset="1"
         style="stop-color:#009fc7;stop-opacity:1" />
    </linearGradient>
    <linearGradient
       id="linearGradient879">
      <stop
         style="stop-color:#fefefe;stop-opacity:1"
         offset="0"
         id="stop875" />
      <stop
         id="stop883"
         offset="0.48129454"
         style="stop-color:#e9e9e9;stop-opacity:1" />
      <stop
         style="stop-color:#c5c5c5;stop-opacity:1"
         offset="0.80403787"
         id="stop885" />
      <stop
         style="stop-color:#b3b3b3;stop-opacity:1"
         offset="1"
         id="stop877" />
    </linearGradient>
    <radialGradient
       xlink:href="#linearGradient879"
       id="radialGradient881"
       cx="97.448601"
       cy="69.467186"
       fx="97.448601"
       fy="69.467186"
       r="47.794289"
       gradientUnits="userSpaceOnUse" />
    <radialGradient
       gradientTransform="matrix(1.0767439,0,0,1.0767439,-7.1751756,-5.7340044)"
       gradientUnits="userSpaceOnUse"
       r="21.802139"
       fy="74.716042"
       fx="93.494995"
       cy="74.716042"
       cx="93.494995"
       id="radialGradient955"
       xlink:href="#linearGradient953" />
    <radialGradient
       gradientTransform="matrix(1.5332546,0,0,1.5332546,-49.717155,-49.350361)"
       gradientUnits="userSpaceOnUse"
       r="21.802139"
       fy="95.542908"
       fx="93.189453"
       cy="95.542908"
       cx="93.189453"
       id="radialGradient975"
       xlink:href="#linearGradient973" />
    <radialGradient
       gradientTransform="matrix(1.5044027,0,0,1.5044027,-47.289785,-28.780175)"
       gradientUnits="userSpaceOnUse"
       r="21.802139"
       fy="50.830742"
       fx="93.856583"
       cy="50.830742"
       cx="93.856583"
       id="radialGradient985"
       xlink:href="#linearGradient983" />
    <linearGradient
       gradientTransform="matrix(1.4273599,0,0,1.4273599,-40.354494,-24.472122)"
       gradientUnits="userSpaceOnUse"
       y2="69.328583"
       x2="94.230049"
       y1="52.443691"
       x1="94.230049"
       id="linearGradient1001"
       xlink:href="#linearGradient999" />
    <radialGradient
       gradientTransform="matrix(1.074666,-2.3361343e-8,1.9008185e-8,1,-7.3421119,-0.00732751)"
       r="47.794289"
       fy="66.597458"
       fx="97.918427"
       cy="66.597458"
       cx="97.918427"
       gradientUnits="userSpaceOnUse"
       id="radialGradient1007"
       xlink:href="#linearGradient1017" />
    <filter
       height="1.7100636"
       y="-0.35503182"
       width="1.1004986"
       x="-0.05024926"
       id="filter1881"
       style="color-interpolation-filters:sRGB">
      <feGaussianBlur
         id="feGaussianBlur1883"
         stdDeviation="2.0013564" />
    </filter>
    <linearGradient
       gradientUnits="userSpaceOnUse"
       y2="148.61118"
       x2="36.140671"
       y1="102.5533"
       x1="66.846306"
       id="linearGradient1891"
       xlink:href="#linearGradient1889" />
  </defs>
  <metadata
     id="metadata5">
    <rdf:RDF>
      <cc:Work
         rdf:about="">
        <dc:format>image/svg+xml</dc:format>
        <dc:type
           rdf:resource="http://purl.org/dc/dcmitype/StillImage" />
        <dc:title></dc:title>
      </cc:Work>
    </rdf:RDF>
  </metadata>
  <g
     id="layer1">
    <g
       id="g1793"
       transform="matrix(2.1531067,0,0,2.1531067,-94.906322,-50.873493)">
      <ellipse
         cy="115.74579"
         cx="93.494995"
         id="circle1019"
         style="opacity:0.749203;fill:url(#linearGradient1891);fill-opacity:1;fill-rule:evenodd;stroke-width:0.0995389;filter:url(#filter1881)"
         rx="47.794289"
         ry="6.7645421"
         transform="matrix(0.90582174,0,0,0.65929742,8.8051963,44.154417)" />
      <circle
         r="47.794289"
         cy="74.716042"
         cx="93.494995"
         id="path865"
         style="fill:url(#radialGradient881);fill-opacity:1;fill-rule:evenodd;stroke-width:0.264583" />
      <circle
         style="fill:url(#radialGradient1007);fill-opacity:1;fill-rule:evenodd;stroke-width:0.264583"
         id="circle889"
         cx="93.494995"
         cy="74.716042"
         r="47.794289" />
      <path
         d="M 83.015651,31.612492 A 42.989601,42.989601 0 0 0 62.497963,42.644645 l 4.626004,4.626005 c 4.391165,-4.213338 9.831042,-7.341878 15.891684,-8.944763 z m 0,8.285744 c -5.646016,1.560529 -10.713828,4.504272 -14.823993,8.440105 l 5.134123,5.134122 a 27.680586,27.680586 0 0 1 9.68987,-5.954928 z M 61.423344,43.719264 A 42.989601,42.989601 0 0 0 50.39119,64.236952 h 6.714386 c 1.602881,-6.060488 4.730908,-11.500372 8.943772,-15.891683 z m 5.693696,5.693695 c -3.936094,4.110018 -6.880364,9.177955 -8.441096,14.823993 h 7.62029 a 27.680586,27.680586 0 0 1 5.954928,-9.68987 z"
         style="opacity:0.6;fill:#ffffff;fill-opacity:1;fill-rule:evenodd;stroke-width:0.237985"
         id="circle891" />
      <circle
         cy="74.716042"
         cx="93.494995"
         id="circle931"
         style="fill:#ffffff;fill-opacity:1;fill-rule:evenodd;stroke-width:0.135198"
         r="24.422039" />
      <circle
         r="24.369408"
         style="fill:#214478;fill-opacity:1;fill-rule:evenodd;stroke-width:0.134907"
         id="circle937"
         cx="93.494995"
         cy="74.716042" />
      <circle
         cy="74.716042"
         cx="93.494995"
         id="circle939"
         style="fill:url(#radialGradient955);fill-opacity:1;fill-rule:evenodd;stroke-width:0.129958"
         r="23.475323" />
      <circle
         r="23.475323"
         style="fill:url(#radialGradient975);fill-opacity:1;fill-rule:evenodd;stroke-width:0.129958"
         id="circle965"
         cx="93.494995"
         cy="74.716042" />
      <circle
         cy="74.716042"
         cx="93.494995"
         id="circle977"
         style="fill:url(#radialGradient985);fill-opacity:1;fill-rule:evenodd;stroke-width:0.129958"
         r="23.475323" />
      <path
         style="opacity:0.5;fill:#ffffff;fill-opacity:1;stroke-width:1.69257"
         id="path959"
         d="M 106.41004,93.051785 97.445493,81.380163 103.38269,94.8464 96.354358,81.91611 100.11188,96.145338 95.192815,82.274768 96.678131,96.916616 93.989467,82.447305 93.166007,97.141243 92.773943,82.429473 89.661983,96.813686 91.576174,82.221711 86.25234,95.942012 90.425652,81.829134 83.021036,94.547684 89.350708,81.261409 80.047635,92.665036 88.37781,80.532515 77.405353,90.340423 87.530914,79.6604 75.159252,87.631087 86.830874,78.666539 73.364637,84.603739 86.294926,77.575404 72.065698,81.332923 85.936268,76.413862 71.29442,77.899178 85.763731,75.210513 71.069794,74.387053 85.781564,73.994989 71.397351,70.883029 85.989326,72.79722 72.269024,67.473387 86.381903,71.646699 73.663352,64.242083 86.949628,70.571755 75.546001,61.268682 87.678522,69.598857 77.870613,58.6264 88.550636,68.751961 80.57995,56.380298 89.544497,68.05192 83.607298,54.585683 l 7.028335,12.93029 -3.75752,-14.229228 4.919062,13.87057 -1.485316,-14.641848 2.688664,14.469311 0.82346,-14.693938 0.392064,14.71177 3.11196,-14.384213 -1.914191,14.591976 5.323834,-13.720302 -4.173312,14.112879 7.404612,-12.718551 -6.329668,13.286276 9.303068,-11.403628 -8.33017,12.132521 10.97246,-9.807908 -10.125564,10.680023 12.371664,-7.970687 -11.67162,8.964548 13.46623,-5.9372 -12.93029,7.028335 14.22923,-3.757519 -13.87057,4.919061 14.64185,-1.485316 -14.46931,2.688665 14.69394,0.82346 -14.71177,0.392064 14.38421,3.11196 -14.59198,-1.914191 13.72031,5.323833 -14.11288,-4.173312 12.71855,7.404617 -13.28628,-6.329673 11.40363,9.303073 -12.132521,-8.330175 9.807911,10.972457 -10.680026,-10.125561 z" />
      <circle
         r="7.334558"
         cy="74.716042"
         cx="93.494995"
         id="circle961"
         style="fill:#000000;fill-opacity:1;fill-rule:evenodd;stroke-width:0.0406032" />
      <circle
         r="18.057896"
         cy="69.858833"
         cx="93.096527"
         id="circle987"
         style="opacity:0.798655;fill:url(#linearGradient1001);fill-opacity:1;fill-rule:evenodd;stroke-width:0.099966" />
      <circle
         cy="67.676369"
         cx="99.458191"
         id="circle1003"
         style="opacity:0.864844;fill:#ffffff;fill-opacity:1;fill-rule:evenodd;stroke-width:0.0272352"
         r="4.9197345" />
      <circle
         r="2.338558"
         style="opacity:0.912222;fill:#ffffff;fill-opacity:1;fill-rule:evenodd;stroke-width:0.012946"
         id="circle1005"
         cx="88.159157"
         cy="80.534767" />
      </g>
  </g>
</svg>
